TITLE ""
FILE "LR_black_phrase_E_09.mp3" MP3
  TRACK 01 AUDIO
    TITLE "LR_black_phrase_E_09_001"
    INDEX 01 00:00:00
  TRACK 02 AUDIO
    TITLE "LR_black_phrase_E_09_002"
    INDEX 01 00:00:14
  TRACK 03 AUDIO
    TITLE "LR_black_phrase_E_09_003"
    INDEX 01 00:01:41
  TRACK 04 AUDIO
    TITLE "LR_black_phrase_E_09_004"
    INDEX 01 00:01:72
  TRACK 05 AUDIO
    TITLE "LR_black_phrase_E_09_005"
    INDEX 01 00:04:02
  TRACK 06 AUDIO
    TITLE "LR_black_phrase_E_09_006"
    INDEX 01 00:04:55
  TRACK 07 AUDIO
    TITLE "LR_black_phrase_E_09_007"
    INDEX 01 00:06:60
  TRACK 08 AUDIO
    TITLE "LR_black_phrase_E_09_008"
    INDEX 01 00:07:63
  TRACK 09 AUDIO
    TITLE "LR_black_phrase_E_09_009"
    INDEX 01 00:09:03
  TRACK 10 AUDIO
    TITLE "LR_black_phrase_E_09_010"
    INDEX 01 00:09:33
  TRACK 11 AUDIO
    TITLE "LR_black_phrase_E_09_011"
    INDEX 01 00:11:18
  TRACK 12 AUDIO
    TITLE "LR_black_phrase_E_09_012"
    INDEX 01 00:11:71
  TRACK 13 AUDIO
    TITLE "LR_black_phrase_E_09_013"
    INDEX 01 00:13:56
  TRACK 14 AUDIO
    TITLE "LR_black_phrase_E_09_014"
    INDEX 01 00:14:57
  TRACK 15 AUDIO
    TITLE "LR_black_phrase_E_09_015"
    INDEX 01 00:16:03
  TRACK 16 AUDIO
    TITLE "LR_black_phrase_E_09_016"
    INDEX 01 00:16:35
  TRACK 17 AUDIO
    TITLE "LR_black_phrase_E_09_017"
    INDEX 01 00:18:40
  TRACK 18 AUDIO
    TITLE "LR_black_phrase_E_09_018"
    INDEX 01 00:19:19
  TRACK 19 AUDIO
    TITLE "LR_black_phrase_E_09_019"
    INDEX 01 00:21:28
  TRACK 20 AUDIO
    TITLE "LR_black_phrase_E_09_020"
    INDEX 01 00:22:31
  TRACK 21 AUDIO
    TITLE "LR_black_phrase_E_09_021"
    INDEX 01 00:23:39
  TRACK 22 AUDIO
    TITLE "LR_black_phrase_E_09_022"
    INDEX 01 00:23:72
  TRACK 23 AUDIO
    TITLE "LR_black_phrase_E_09_023"
    INDEX 01 00:26:18
  TRACK 24 AUDIO
    TITLE "LR_black_phrase_E_09_024"
    INDEX 01 00:26:72
  TRACK 25 AUDIO
    TITLE "LR_black_phrase_E_09_025"
    INDEX 01 00:29:20
  TRACK 26 AUDIO
    TITLE "LR_black_phrase_E_09_026"
    INDEX 01 00:30:25
  TRACK 27 AUDIO
    TITLE "LR_black_phrase_E_09_027"
    INDEX 01 00:31:44
  TRACK 28 AUDIO
    TITLE "LR_black_phrase_E_09_028"
    INDEX 01 00:32:01
  TRACK 29 AUDIO
    TITLE "LR_black_phrase_E_09_029"
    INDEX 01 00:34:44
  TRACK 30 AUDIO
    TITLE "LR_black_phrase_E_09_030"
    INDEX 01 00:35:24
  TRACK 31 AUDIO
    TITLE "LR_black_phrase_E_09_031"
    INDEX 01 00:37:72
  TRACK 32 AUDIO
    TITLE "LR_black_phrase_E_09_032"
    INDEX 01 00:39:01
  TRACK 33 AUDIO
    TITLE "LR_black_phrase_E_09_033"
    INDEX 01 00:40:04
  TRACK 34 AUDIO
    TITLE "LR_black_phrase_E_09_034"
    INDEX 01 00:40:31
  TRACK 35 AUDIO
    TITLE "LR_black_phrase_E_09_035"
    INDEX 01 00:42:13
  TRACK 36 AUDIO
    TITLE "LR_black_phrase_E_09_036"
    INDEX 01 00:42:67
  TRACK 37 AUDIO
    TITLE "LR_black_phrase_E_09_037"
    INDEX 01 00:44:47
  TRACK 38 AUDIO
    TITLE "LR_black_phrase_E_09_038"
    INDEX 01 00:45:52
  TRACK 39 AUDIO
    TITLE "LR_black_phrase_E_09_039"
    INDEX 01 00:47:14
  TRACK 40 AUDIO
    TITLE "LR_black_phrase_E_09_040"
    INDEX 01 00:47:41
  TRACK 41 AUDIO
    TITLE "LR_black_phrase_E_09_041"
    INDEX 01 00:49:44
  TRACK 42 AUDIO
    TITLE "LR_black_phrase_E_09_042"
    INDEX 01 00:50:26
  TRACK 43 AUDIO
    TITLE "LR_black_phrase_E_09_043"
    INDEX 01 00:52:31
  TRACK 44 AUDIO
    TITLE "LR_black_phrase_E_09_044"
    INDEX 01 00:53:34
  TRACK 45 AUDIO
    TITLE "LR_black_phrase_E_09_045"
    INDEX 01 00:54:59
  TRACK 46 AUDIO
    TITLE "LR_black_phrase_E_09_046"
    INDEX 01 00:55:15
  TRACK 47 AUDIO
    TITLE "LR_black_phrase_E_09_047"
    INDEX 01 00:57:18
  TRACK 48 AUDIO
    TITLE "LR_black_phrase_E_09_048"
    INDEX 01 00:57:73
  TRACK 49 AUDIO
    TITLE "LR_black_phrase_E_09_049"
    INDEX 01 00:59:74
  TRACK 50 AUDIO
    TITLE "LR_black_phrase_E_09_050"
    INDEX 01 01:01:04
  TRACK 51 AUDIO
    TITLE "LR_black_phrase_E_09_051"
    INDEX 01 01:02:09
  TRACK 52 AUDIO
    TITLE "LR_black_phrase_E_09_052"
    INDEX 01 01:02:39
  TRACK 53 AUDIO
    TITLE "LR_black_phrase_E_09_053"
    INDEX 01 01:04:12
  TRACK 54 AUDIO
    TITLE "LR_black_phrase_E_09_054"
    INDEX 01 01:04:67
  TRACK 55 AUDIO
    TITLE "LR_black_phrase_E_09_055"
    INDEX 01 01:06:39
  TRACK 56 AUDIO
    TITLE "LR_black_phrase_E_09_056"
    INDEX 01 01:07:36
  TRACK 57 AUDIO
    TITLE "LR_black_phrase_E_09_057"
    INDEX 01 01:08:61
  TRACK 58 AUDIO
    TITLE "LR_black_phrase_E_09_058"
    INDEX 01 01:09:15
  TRACK 59 AUDIO
    TITLE "LR_black_phrase_E_09_059"
    INDEX 01 01:11:55
  TRACK 60 AUDIO
    TITLE "LR_black_phrase_E_09_060"
    INDEX 01 01:12:35
  TRACK 61 AUDIO
    TITLE "LR_black_phrase_E_09_061"
    INDEX 01 01:15:00
  TRACK 62 AUDIO
    TITLE "LR_black_phrase_E_09_062"
    INDEX 01 01:15:73
  TRACK 63 AUDIO
    TITLE "LR_black_phrase_E_09_063"
    INDEX 01 01:17:33
  TRACK 64 AUDIO
    TITLE "LR_black_phrase_E_09_064"
    INDEX 01 01:17:54
  TRACK 65 AUDIO
    TITLE "LR_black_phrase_E_09_065"
    INDEX 01 01:20:54
  TRACK 66 AUDIO
    TITLE "LR_black_phrase_E_09_066"
    INDEX 01 01:21:30
  TRACK 67 AUDIO
    TITLE "LR_black_phrase_E_09_067"
    INDEX 01 01:24:33
  TRACK 68 AUDIO
    TITLE "LR_black_phrase_E_09_068"
    INDEX 01 01:25:32
  TRACK 69 AUDIO
    TITLE "LR_black_phrase_E_09_069"
    INDEX 01 01:26:59
  TRACK 70 AUDIO
    TITLE "LR_black_phrase_E_09_070"
    INDEX 01 01:27:07
  TRACK 71 AUDIO
    TITLE "LR_black_phrase_E_09_071"
    INDEX 01 01:29:45
  TRACK 72 AUDIO
    TITLE "LR_black_phrase_E_09_072"
    INDEX 01 01:30:12
  TRACK 73 AUDIO
    TITLE "LR_black_phrase_E_09_073"
    INDEX 01 01:32:48
  TRACK 74 AUDIO
    TITLE "LR_black_phrase_E_09_074"
    INDEX 01 01:33:41
  TRACK 75 AUDIO
    TITLE "LR_black_phrase_E_09_075"
    INDEX 01 01:34:64
  TRACK 76 AUDIO
    TITLE "LR_black_phrase_E_09_076"
    INDEX 01 01:35:13
  TRACK 77 AUDIO
    TITLE "LR_black_phrase_E_09_077"
    INDEX 01 01:37:61
  TRACK 78 AUDIO
    TITLE "LR_black_phrase_E_09_078"
    INDEX 01 01:38:35
  TRACK 79 AUDIO
    TITLE "LR_black_phrase_E_09_079"
    INDEX 01 01:41:00
  TRACK 80 AUDIO
    TITLE "LR_black_phrase_E_09_080"
    INDEX 01 01:42:03
  TRACK 81 AUDIO
    TITLE "LR_black_phrase_E_09_081"
    INDEX 01 01:43:20
  TRACK 82 AUDIO
    TITLE "LR_black_phrase_E_09_082"
    INDEX 01 01:43:42
  TRACK 83 AUDIO
    TITLE "LR_black_phrase_E_09_083"
    INDEX 01 01:45:15
  TRACK 84 AUDIO
    TITLE "LR_black_phrase_E_09_084"
    INDEX 01 01:45:68
  TRACK 85 AUDIO
    TITLE "LR_black_phrase_E_09_085"
    INDEX 01 01:47:43
  TRACK 86 AUDIO
    TITLE "LR_black_phrase_E_09_086"
    INDEX 01 01:48:45
  TRACK 87 AUDIO
    TITLE "LR_black_phrase_E_09_087"
    INDEX 01 01:49:62
  TRACK 88 AUDIO
    TITLE "LR_black_phrase_E_09_088"
    INDEX 01 01:50:06
  TRACK 89 AUDIO
    TITLE "LR_black_phrase_E_09_089"
    INDEX 01 01:51:71
  TRACK 90 AUDIO
    TITLE "LR_black_phrase_E_09_090"
    INDEX 01 01:52:41
  TRACK 91 AUDIO
    TITLE "LR_black_phrase_E_09_091"
    INDEX 01 01:54:30
  TRACK 92 AUDIO
    TITLE "LR_black_phrase_E_09_092"
    INDEX 01 01:55:27
  TRACK 93 AUDIO
    TITLE "LR_black_phrase_E_09_093"
    INDEX 01 01:56:52
  TRACK 94 AUDIO
    TITLE "LR_black_phrase_E_09_094"
    INDEX 01 01:56:68
  TRACK 95 AUDIO
    TITLE "LR_black_phrase_E_09_095"
    INDEX 01 01:58:63
  TRACK 96 AUDIO
    TITLE "LR_black_phrase_E_09_096"
    INDEX 01 01:59:31
  TRACK 97 AUDIO
    TITLE "LR_black_phrase_E_09_097"
    INDEX 01 02:01:22
  TRACK 98 AUDIO
    TITLE "LR_black_phrase_E_09_098"
    INDEX 01 02:02:19
  TRACK 99 AUDIO
    TITLE "LR_black_phrase_E_09_099"
    INDEX 01 02:03:66
  TRACK 100 AUDIO
    TITLE "LR_black_phrase_E_09_100"
    INDEX 01 02:04:12
  TRACK 101 AUDIO
    TITLE "LR_black_phrase_E_09_101"
    INDEX 01 02:06:62
  TRACK 102 AUDIO
    TITLE "LR_black_phrase_E_09_102"
    INDEX 01 02:07:36
  TRACK 103 AUDIO
    TITLE "LR_black_phrase_E_09_103"
    INDEX 01 02:10:15
  TRACK 104 AUDIO
    TITLE "LR_black_phrase_E_09_104"
    INDEX 01 02:11:15
  TRACK 105 AUDIO
    TITLE "LR_black_phrase_E_09_105"
    INDEX 01 02:12:36
  TRACK 106 AUDIO
    TITLE "LR_black_phrase_E_09_106"
    INDEX 01 02:12:57
  TRACK 107 AUDIO
    TITLE "LR_black_phrase_E_09_107"
    INDEX 01 02:15:46
  TRACK 108 AUDIO
    TITLE "LR_black_phrase_E_09_108"
    INDEX 01 02:16:14
  TRACK 109 AUDIO
    TITLE "LR_black_phrase_E_09_109"
    INDEX 01 02:18:73
  TRACK 110 AUDIO
    TITLE "LR_black_phrase_E_09_110"
    INDEX 01 02:19:73
  TRACK 111 AUDIO
    TITLE "LR_black_phrase_E_09_111"
    INDEX 01 02:21:23
  TRACK 112 AUDIO
    TITLE "LR_black_phrase_E_09_112"
    INDEX 01 02:21:46
  TRACK 113 AUDIO
    TITLE "LR_black_phrase_E_09_113"
    INDEX 01 02:23:55
  TRACK 114 AUDIO
    TITLE "LR_black_phrase_E_09_114"
    INDEX 01 02:24:29
  TRACK 115 AUDIO
    TITLE "LR_black_phrase_E_09_115"
    INDEX 01 02:26:36
  TRACK 116 AUDIO
    TITLE "LR_black_phrase_E_09_116"
    INDEX 01 02:27:29
  TRACK 117 AUDIO
    TITLE "LR_black_phrase_E_09_117"
    INDEX 01 02:28:36
  TRACK 118 AUDIO
    TITLE "LR_black_phrase_E_09_118"
    INDEX 01 02:28:60
  TRACK 119 AUDIO
    TITLE "LR_black_phrase_E_09_119"
    INDEX 01 02:31:25
  TRACK 120 AUDIO
    TITLE "LR_black_phrase_E_09_120"
    INDEX 01 02:31:70
  TRACK 121 AUDIO
    TITLE "LR_black_phrase_E_09_121"
    INDEX 01 02:34:35
  TRACK 122 AUDIO
    TITLE "LR_black_phrase_E_09_122"
    INDEX 01 02:35:33
  TRACK 123 AUDIO
    TITLE "LR_black_phrase_E_09_123"
    INDEX 01 02:36:58
  TRACK 124 AUDIO
    TITLE "LR_black_phrase_E_09_124"
    INDEX 01 02:37:00
  TRACK 125 AUDIO
    TITLE "LR_black_phrase_E_09_125"
    INDEX 01 02:38:60
  TRACK 126 AUDIO
    TITLE "LR_black_phrase_E_09_126"
    INDEX 01 02:39:30
  TRACK 127 AUDIO
    TITLE "LR_black_phrase_E_09_127"
    INDEX 01 02:41:14
  TRACK 128 AUDIO
    TITLE "LR_black_phrase_E_09_128"
    INDEX 01 02:42:17
  TRACK 129 AUDIO
    TITLE "LR_black_phrase_E_09_129"
    INDEX 01 02:43:36
  TRACK 130 AUDIO
    TITLE "LR_black_phrase_E_09_130"
    INDEX 01 02:43:67
  TRACK 131 AUDIO
    TITLE "LR_black_phrase_E_09_131"
    INDEX 01 02:45:64
  TRACK 132 AUDIO
    TITLE "LR_black_phrase_E_09_132"
    INDEX 01 02:46:42
  TRACK 133 AUDIO
    TITLE "LR_black_phrase_E_09_133"
    INDEX 01 02:48:35
  TRACK 134 AUDIO
    TITLE "LR_black_phrase_E_09_134"
    INDEX 01 02:49:37
  TRACK 135 AUDIO
    TITLE "LR_black_phrase_E_09_135"
    INDEX 01 02:50:46
  TRACK 136 AUDIO
    TITLE "LR_black_phrase_E_09_136"
    INDEX 01 02:51:00
  TRACK 137 AUDIO
    TITLE "LR_black_phrase_E_09_137"
    INDEX 01 02:52:57
  TRACK 138 AUDIO
    TITLE "LR_black_phrase_E_09_138"
    INDEX 01 02:53:36
  TRACK 139 AUDIO
    TITLE "LR_black_phrase_E_09_139"
    INDEX 01 02:55:22
  TRACK 140 AUDIO
    TITLE "LR_black_phrase_E_09_140"
    INDEX 01 02:56:25
  TRACK 141 AUDIO
    TITLE "LR_black_phrase_E_09_141"
    INDEX 01 02:57:40
  TRACK 142 AUDIO
    TITLE "LR_black_phrase_E_09_142"
    INDEX 01 02:57:69
  TRACK 143 AUDIO
    TITLE "LR_black_phrase_E_09_143"
    INDEX 01 03:00:72
  TRACK 144 AUDIO
    TITLE "LR_black_phrase_E_09_144"
    INDEX 01 03:01:52
  TRACK 145 AUDIO
    TITLE "LR_black_phrase_E_09_145"
    INDEX 01 03:04:54
  TRACK 146 AUDIO
    TITLE "LR_black_phrase_E_09_146"
    INDEX 01 03:05:57
  TRACK 147 AUDIO
    TITLE "LR_black_phrase_E_09_147"
    INDEX 01 03:06:72
  TRACK 148 AUDIO
    TITLE "LR_black_phrase_E_09_148"
    INDEX 01 03:07:27
  TRACK 149 AUDIO
    TITLE "LR_black_phrase_E_09_149"
    INDEX 01 03:09:63
  TRACK 150 AUDIO
    TITLE "LR_black_phrase_E_09_150"
    INDEX 01 03:10:43
  TRACK 151 AUDIO
    TITLE "LR_black_phrase_E_09_151"
    INDEX 01 03:13:04
  TRACK 152 AUDIO
    TITLE "LR_black_phrase_E_09_152"
    INDEX 01 03:14:07
  TRACK 153 AUDIO
    TITLE "LR_black_phrase_E_09_153"
    INDEX 01 03:15:28
  TRACK 154 AUDIO
    TITLE "LR_black_phrase_E_09_154"
    INDEX 01 03:15:60
  TRACK 155 AUDIO
    TITLE "LR_black_phrase_E_09_155"
    INDEX 01 03:18:48
  TRACK 156 AUDIO
    TITLE "LR_black_phrase_E_09_156"
    INDEX 01 03:19:28
  TRACK 157 AUDIO
    TITLE "LR_black_phrase_E_09_157"
    INDEX 01 03:22:15
  TRACK 158 AUDIO
    TITLE "LR_black_phrase_E_09_158"
    INDEX 01 03:23:20
  TRACK 159 AUDIO
    TITLE "LR_black_phrase_E_09_159"
    INDEX 01 03:24:41
  TRACK 160 AUDIO
    TITLE "LR_black_phrase_E_09_160"
    INDEX 01 03:24:70
  TRACK 161 AUDIO
    TITLE "LR_black_phrase_E_09_161"
    INDEX 01 03:27:29
  TRACK 162 AUDIO
    TITLE "LR_black_phrase_E_09_162"
    INDEX 01 03:28:07
  TRACK 163 AUDIO
    TITLE "LR_black_phrase_E_09_163"
    INDEX 01 03:30:42
  TRACK 164 AUDIO
    TITLE "LR_black_phrase_E_09_164"
    INDEX 01 03:31:45
  TRACK 165 AUDIO
    TITLE "LR_black_phrase_E_09_165"
    INDEX 01 03:32:60
  TRACK 166 AUDIO
    TITLE "LR_black_phrase_E_09_166"
    INDEX 01 03:33:14
  TRACK 167 AUDIO
    TITLE "LR_black_phrase_E_09_167"
    INDEX 01 03:35:25
  TRACK 168 AUDIO
    TITLE "LR_black_phrase_E_09_168"
    INDEX 01 03:36:05
  TRACK 169 AUDIO
    TITLE "LR_black_phrase_E_09_169"
    INDEX 01 03:38:16
  TRACK 170 AUDIO
    TITLE "LR_black_phrase_E_09_170"
    INDEX 01 03:39:21
  TRACK 171 AUDIO
    TITLE "LR_black_phrase_E_09_171"
    INDEX 01 03:40:44
  TRACK 172 AUDIO
    TITLE "LR_black_phrase_E_09_172"
    INDEX 01 03:40:73
  TRACK 173 AUDIO
    TITLE "LR_black_phrase_E_09_173"
    INDEX 01 03:43:56
  TRACK 174 AUDIO
    TITLE "LR_black_phrase_E_09_174"
    INDEX 01 03:44:36
  TRACK 175 AUDIO
    TITLE "LR_black_phrase_E_09_175"
    INDEX 01 03:47:18
  TRACK 176 AUDIO
    TITLE "LR_black_phrase_E_09_176"
    INDEX 01 03:48:22
  TRACK 177 AUDIO
    TITLE "LR_black_phrase_E_09_177"
    INDEX 01 03:49:37
  TRACK 178 AUDIO
    TITLE "LR_black_phrase_E_09_178"
    INDEX 01 03:49:66
  TRACK 179 AUDIO
    TITLE "LR_black_phrase_E_09_179"
    INDEX 01 03:51:61
  TRACK 180 AUDIO
    TITLE "LR_black_phrase_E_09_180"
    INDEX 01 03:52:43
  TRACK 181 AUDIO
    TITLE "LR_black_phrase_E_09_181"
    INDEX 01 03:54:36
  TRACK 182 AUDIO
    TITLE "LR_black_phrase_E_09_182"
    INDEX 01 03:55:40
  TRACK 183 AUDIO
    TITLE "LR_black_phrase_E_09_183"
    INDEX 01 03:56:61
  TRACK 184 AUDIO
    TITLE "LR_black_phrase_E_09_184"
    INDEX 01 03:57:15
  TRACK 185 AUDIO
    TITLE "LR_black_phrase_E_09_185"
    INDEX 01 03:59:59
  TRACK 186 AUDIO
    TITLE "LR_black_phrase_E_09_186"
    INDEX 01 04:00:35
  TRACK 187 AUDIO
    TITLE "LR_black_phrase_E_09_187"
    INDEX 01 04:03:04
  TRACK 188 AUDIO
    TITLE "LR_black_phrase_E_09_188"
    INDEX 01 04:04:03
  TRACK 189 AUDIO
    TITLE "LR_black_phrase_E_09_189"
    INDEX 01 04:05:24
  TRACK 190 AUDIO
    TITLE "LR_black_phrase_E_09_190"
    INDEX 01 04:05:50
  TRACK 191 AUDIO
    TITLE "LR_black_phrase_E_09_191"
    INDEX 01 04:08:50
  TRACK 192 AUDIO
    TITLE "LR_black_phrase_E_09_192"
    INDEX 01 04:09:20
  TRACK 193 AUDIO
    TITLE "LR_black_phrase_E_09_193"
    INDEX 01 04:12:22
  TRACK 194 AUDIO
    TITLE "LR_black_phrase_E_09_194"
    INDEX 01 04:13:18
  TRACK 195 AUDIO
    TITLE "LR_black_phrase_E_09_195"
    INDEX 01 04:14:27
  TRACK 196 AUDIO
    TITLE "LR_black_phrase_E_09_196"
    INDEX 01 04:14:56
  TRACK 197 AUDIO
    TITLE "LR_black_phrase_E_09_197"
    INDEX 01 04:16:36
  TRACK 198 AUDIO
    TITLE "LR_black_phrase_E_09_198"
    INDEX 01 04:17:10
  TRACK 199 AUDIO
    TITLE "LR_black_phrase_E_09_199"
    INDEX 01 04:18:66
  TRACK 200 AUDIO
    TITLE "LR_black_phrase_E_09_200"
    INDEX 01 04:19:62
  TRACK 201 AUDIO
    TITLE "LR_black_phrase_E_09_201"
    INDEX 01 04:20:69
  TRACK 202 AUDIO
    TITLE "LR_black_phrase_E_09_202"
    INDEX 01 04:21:19
  TRACK 203 AUDIO
    TITLE "LR_black_phrase_E_09_203"
    INDEX 01 04:23:38
  TRACK 204 AUDIO
    TITLE "LR_black_phrase_E_09_204"
    INDEX 01 04:24:12
  TRACK 205 AUDIO
    TITLE "LR_black_phrase_E_09_205"
    INDEX 01 04:26:30
  TRACK 206 AUDIO
    TITLE "LR_black_phrase_E_09_206"
    INDEX 01 04:27:24
  TRACK 207 AUDIO
    TITLE "LR_black_phrase_E_09_207"
    INDEX 01 04:28:51
  TRACK 208 AUDIO
    TITLE "LR_black_phrase_E_09_208"
    INDEX 01 04:28:72
  TRACK 209 AUDIO
    TITLE "LR_black_phrase_E_09_209"
    INDEX 01 04:31:12
  TRACK 210 AUDIO
    TITLE "LR_black_phrase_E_09_210"
    INDEX 01 04:31:59
  TRACK 211 AUDIO
    TITLE "LR_black_phrase_E_09_211"
    INDEX 01 04:33:73
  TRACK 212 AUDIO
    TITLE "LR_black_phrase_E_09_212"
    INDEX 01 04:34:73
  TRACK 213 AUDIO
    TITLE "LR_black_phrase_E_09_213"
    INDEX 01 04:36:33
  TRACK 214 AUDIO
    TITLE "LR_black_phrase_E_09_214"
    INDEX 01 04:36:52
  TRACK 215 AUDIO
    TITLE "LR_black_phrase_E_09_215"
    INDEX 01 04:39:23
  TRACK 216 AUDIO
    TITLE "LR_black_phrase_E_09_216"
    INDEX 01 04:39:66
  TRACK 217 AUDIO
    TITLE "LR_black_phrase_E_09_217"
    INDEX 01 04:42:37
  TRACK 218 AUDIO
    TITLE "LR_black_phrase_E_09_218"
    INDEX 01 04:43:33
  TRACK 219 AUDIO
    TITLE "LR_black_phrase_E_09_219"
    INDEX 01 04:44:60
  TRACK 220 AUDIO
    TITLE "LR_black_phrase_E_09_220"
    INDEX 01 04:45:02
  TRACK 221 AUDIO
    TITLE "LR_black_phrase_E_09_221"
    INDEX 01 04:47:60
  TRACK 222 AUDIO
    TITLE "LR_black_phrase_E_09_222"
    INDEX 01 04:48:30
  TRACK 223 AUDIO
    TITLE "LR_black_phrase_E_09_223"
    INDEX 01 04:51:13
  TRACK 224 AUDIO
    TITLE "LR_black_phrase_E_09_224"
    INDEX 01 04:52:08
  TRACK 225 AUDIO
    TITLE "LR_black_phrase_E_09_225"
    INDEX 01 04:53:33
  TRACK 226 AUDIO
    TITLE "LR_black_phrase_E_09_226"
    INDEX 01 04:53:55
  TRACK 227 AUDIO
    TITLE "LR_black_phrase_E_09_227"
    INDEX 01 04:55:59
  TRACK 228 AUDIO
    TITLE "LR_black_phrase_E_09_228"
    INDEX 01 04:56:29
  TRACK 229 AUDIO
    TITLE "LR_black_phrase_E_09_229"
    INDEX 01 04:58:34
  TRACK 230 AUDIO
    TITLE "LR_black_phrase_E_09_230"
    INDEX 01 04:59:30
  TRACK 231 AUDIO
    TITLE "LR_black_phrase_E_09_231"
    INDEX 01 05:00:41
  TRACK 232 AUDIO
    TITLE "LR_black_phrase_E_09_232"
    INDEX 01 05:00:62
  TRACK 233 AUDIO
    TITLE "LR_black_phrase_E_09_233"
    INDEX 01 05:02:57
  TRACK 234 AUDIO
    TITLE "LR_black_phrase_E_09_234"
    INDEX 01 05:03:33
  TRACK 235 AUDIO
    TITLE "LR_black_phrase_E_09_235"
    INDEX 01 05:05:30
  TRACK 236 AUDIO
    TITLE "LR_black_phrase_E_09_236"
    INDEX 01 05:06:28
  TRACK 237 AUDIO
    TITLE "LR_black_phrase_E_09_237"
    INDEX 01 05:07:41
  TRACK 238 AUDIO
    TITLE "LR_black_phrase_E_09_238"
    INDEX 01 05:07:63
  TRACK 239 AUDIO
    TITLE "LR_black_phrase_E_09_239"
    INDEX 01 05:10:04
  TRACK 240 AUDIO
    TITLE "LR_black_phrase_E_09_240"
    INDEX 01 05:10:49
  TRACK 241 AUDIO
    TITLE "LR_black_phrase_E_09_241"
    INDEX 01 05:12:68
  TRACK 242 AUDIO
    TITLE "LR_black_phrase_E_09_242"
    INDEX 01 05:13:67
  TRACK 243 AUDIO
    TITLE "LR_black_phrase_E_09_243"
    INDEX 01 05:15:13
  TRACK 244 AUDIO
    TITLE "LR_black_phrase_E_09_244"
    INDEX 01 05:15:42
  TRACK 245 AUDIO
    TITLE "LR_black_phrase_E_09_245"
    INDEX 01 05:17:61
  TRACK 246 AUDIO
    TITLE "LR_black_phrase_E_09_246"
    INDEX 01 05:18:41
  TRACK 247 AUDIO
    TITLE "LR_black_phrase_E_09_247"
    INDEX 01 05:20:57
  TRACK 248 AUDIO
    TITLE "LR_black_phrase_E_09_248"
    INDEX 01 05:21:63
  TRACK 249 AUDIO
    TITLE "LR_black_phrase_E_09_249"
    INDEX 01 05:23:16
  TRACK 250 AUDIO
    TITLE "LR_black_phrase_E_09_250"
    INDEX 01 05:23:44
  TRACK 251 AUDIO
    TITLE "LR_black_phrase_E_09_251"
    INDEX 01 05:27:40
  TRACK 252 AUDIO
    TITLE "LR_black_phrase_E_09_252"
    INDEX 01 05:28:18
  TRACK 253 AUDIO
    TITLE "LR_black_phrase_E_09_253"
    INDEX 01 05:32:13
  TRACK 254 AUDIO
    TITLE "LR_black_phrase_E_09_254"
    INDEX 01 05:33:15
  TRACK 255 AUDIO
    TITLE "LR_black_phrase_E_09_255"
    INDEX 01 05:34:30
  TRACK 256 AUDIO
    TITLE "LR_black_phrase_E_09_256"
    INDEX 01 05:34:59
  TRACK 257 AUDIO
    TITLE "LR_black_phrase_E_09_257"
    INDEX 01 05:36:48
  TRACK 258 AUDIO
    TITLE "LR_black_phrase_E_09_258"
    INDEX 01 05:37:26
  TRACK 259 AUDIO
    TITLE "LR_black_phrase_E_09_259"
    INDEX 01 05:39:15
  TRACK 260 AUDIO
    TITLE "LR_black_phrase_E_09_260"
    INDEX 01 05:40:19
  TRACK 261 AUDIO
    TITLE "LR_black_phrase_E_09_261"
    INDEX 01 05:41:30
  TRACK 262 AUDIO
    TITLE "LR_black_phrase_E_09_262"
    INDEX 01 05:41:59
  TRACK 263 AUDIO
    TITLE "LR_black_phrase_E_09_263"
    INDEX 01 05:43:54
  TRACK 264 AUDIO
    TITLE "LR_black_phrase_E_09_264"
    INDEX 01 05:44:34
  TRACK 265 AUDIO
    TITLE "LR_black_phrase_E_09_265"
    INDEX 01 05:46:29
  TRACK 266 AUDIO
    TITLE "LR_black_phrase_E_09_266"
    INDEX 01 05:47:35
  TRACK 267 AUDIO
    TITLE "LR_black_phrase_E_09_267"
    INDEX 01 05:48:46
  TRACK 268 AUDIO
    TITLE "LR_black_phrase_E_09_268"
    INDEX 01 05:49:02
  TRACK 269 AUDIO
    TITLE "LR_black_phrase_E_09_269"
    INDEX 01 05:52:32
  TRACK 270 AUDIO
    TITLE "LR_black_phrase_E_09_270"
    INDEX 01 05:53:12
  TRACK 271 AUDIO
    TITLE "LR_black_phrase_E_09_271"
    INDEX 01 05:56:43
  TRACK 272 AUDIO
    TITLE "LR_black_phrase_E_09_272"
    INDEX 01 05:57:49
  TRACK 273 AUDIO
    TITLE "LR_black_phrase_E_09_273"
    INDEX 01 05:58:54
  TRACK 274 AUDIO
    TITLE "LR_black_phrase_E_09_274"
    INDEX 01 05:59:06
  TRACK 275 AUDIO
    TITLE "LR_black_phrase_E_09_275"
    INDEX 01 06:01:09
  TRACK 276 AUDIO
    TITLE "LR_black_phrase_E_09_276"
    INDEX 01 06:01:62
  TRACK 277 AUDIO
    TITLE "LR_black_phrase_E_09_277"
    INDEX 01 06:03:63
  TRACK 278 AUDIO
    TITLE "LR_black_phrase_E_09_278"
    INDEX 01 06:04:66
  TRACK 279 AUDIO
    TITLE "LR_black_phrase_E_09_279"
    INDEX 01 06:06:06
  TRACK 280 AUDIO
    TITLE "LR_black_phrase_E_09_280"
    INDEX 01 06:06:34
  TRACK 281 AUDIO
    TITLE "LR_black_phrase_E_09_281"
    INDEX 01 06:08:19
  TRACK 282 AUDIO
    TITLE "LR_black_phrase_E_09_282"
    INDEX 01 06:08:66
  TRACK 283 AUDIO
    TITLE "LR_black_phrase_E_09_283"
    INDEX 01 06:10:51
  TRACK 284 AUDIO
    TITLE "LR_black_phrase_E_09_284"
    INDEX 01 06:11:49
  TRACK 285 AUDIO
    TITLE "LR_black_phrase_E_09_285"
    INDEX 01 06:13:10
  TRACK 286 AUDIO
    TITLE "LR_black_phrase_E_09_286"
    INDEX 01 06:13:40
  TRACK 287 AUDIO
    TITLE "LR_black_phrase_E_09_287"
    INDEX 01 06:15:54
  TRACK 288 AUDIO
    TITLE "LR_black_phrase_E_09_288"
    INDEX 01 06:16:34
  TRACK 289 AUDIO
    TITLE "LR_black_phrase_E_09_289"
    INDEX 01 06:18:51
  TRACK 290 AUDIO
    TITLE "LR_black_phrase_E_09_290"
    INDEX 01 06:19:54
  TRACK 291 AUDIO
    TITLE "LR_black_phrase_E_09_291"
    INDEX 01 06:21:02
  TRACK 292 AUDIO
    TITLE "LR_black_phrase_E_09_292"
    INDEX 01 06:21:33
  TRACK 293 AUDIO
    TITLE "LR_black_phrase_E_09_293"
    INDEX 01 06:23:72
  TRACK 294 AUDIO
    TITLE "LR_black_phrase_E_09_294"
    INDEX 01 06:24:48
  TRACK 295 AUDIO
    TITLE "LR_black_phrase_E_09_295"
    INDEX 01 06:27:13
  TRACK 296 AUDIO
    TITLE "LR_black_phrase_E_09_296"
    INDEX 01 06:28:12
  TRACK 297 AUDIO
    TITLE "LR_black_phrase_E_09_297"
    INDEX 01 06:29:25
  TRACK 298 AUDIO
    TITLE "LR_black_phrase_E_09_298"
    INDEX 01 06:29:53
  TRACK 299 AUDIO
    TITLE "LR_black_phrase_E_09_299"
    INDEX 01 06:31:22
  TRACK 300 AUDIO
    TITLE "LR_black_phrase_E_09_300"
    INDEX 01 06:32:00
  TRACK 301 AUDIO
    TITLE "LR_black_phrase_E_09_301"
    INDEX 01 06:33:45
  TRACK 302 AUDIO
    TITLE "LR_black_phrase_E_09_302"
    INDEX 01 06:34:46
  TRACK 303 AUDIO
    TITLE "LR_black_phrase_E_09_303"
    INDEX 01 06:35:65
  TRACK 304 AUDIO
    TITLE "LR_black_phrase_E_09_304"
    INDEX 01 06:36:10
  TRACK 305 AUDIO
    TITLE "LR_black_phrase_E_09_305"
    INDEX 01 06:38:40
  TRACK 306 AUDIO
    TITLE "LR_black_phrase_E_09_306"
    INDEX 01 06:39:10
  TRACK 307 AUDIO
    TITLE "LR_black_phrase_E_09_307"
    INDEX 01 06:41:40
  TRACK 308 AUDIO
    TITLE "LR_black_phrase_E_09_308"
    INDEX 01 06:42:34
  TRACK 309 AUDIO
    TITLE "LR_black_phrase_E_09_309"
    INDEX 01 06:43:53
  TRACK 310 AUDIO
    TITLE "LR_black_phrase_E_09_310"
    INDEX 01 06:44:01
  TRACK 311 AUDIO
    TITLE "LR_black_phrase_E_09_311"
    INDEX 01 06:46:10
  TRACK 312 AUDIO
    TITLE "LR_black_phrase_E_09_312"
    INDEX 01 06:46:59
  TRACK 313 AUDIO
    TITLE "LR_black_phrase_E_09_313"
    INDEX 01 06:48:70
  TRACK 314 AUDIO
    TITLE "LR_black_phrase_E_09_314"
    INDEX 01 06:49:67
  TRACK 315 AUDIO
    TITLE "LR_black_phrase_E_09_315"
    INDEX 01 06:51:23
  TRACK 316 AUDIO
    TITLE "LR_black_phrase_E_09_316"
    INDEX 01 06:51:44
  TRACK 317 AUDIO
    TITLE "LR_black_phrase_E_09_317"
    INDEX 01 06:53:39
  TRACK 318 AUDIO
    TITLE "LR_black_phrase_E_09_318"
    INDEX 01 06:54:09
  TRACK 319 AUDIO
    TITLE "LR_black_phrase_E_09_319"
    INDEX 01 06:56:04
  TRACK 320 AUDIO
    TITLE "LR_black_phrase_E_09_320"
    INDEX 01 06:57:00
  TRACK 321 AUDIO
    TITLE "LR_black_phrase_E_09_321"
    INDEX 01 06:58:19
  TRACK 322 AUDIO
    TITLE "LR_black_phrase_E_09_322"
    INDEX 01 06:58:50
  TRACK 323 AUDIO
    TITLE "LR_black_phrase_E_09_323"
    INDEX 01 07:00:73
  TRACK 324 AUDIO
    TITLE "LR_black_phrase_E_09_324"
    INDEX 01 07:01:47
  TRACK 325 AUDIO
    TITLE "LR_black_phrase_E_09_325"
    INDEX 01 07:03:71
  TRACK 326 AUDIO
    TITLE "LR_black_phrase_E_09_326"
    INDEX 01 07:04:65
  TRACK 327 AUDIO
    TITLE "LR_black_phrase_E_09_327"
    INDEX 01 07:06:09
  TRACK 328 AUDIO
    TITLE "LR_black_phrase_E_09_328"
    INDEX 01 07:06:30
  TRACK 329 AUDIO
    TITLE "LR_black_phrase_E_09_329"
    INDEX 01 07:08:21
  TRACK 330 AUDIO
    TITLE "LR_black_phrase_E_09_330"
    INDEX 01 07:08:72
  TRACK 331 AUDIO
    TITLE "LR_black_phrase_E_09_331"
    INDEX 01 07:10:65
  TRACK 332 AUDIO
    TITLE "LR_black_phrase_E_09_332"
    INDEX 01 07:11:65
  TRACK 333 AUDIO
    TITLE "LR_black_phrase_E_09_333"
    INDEX 01 07:12:74
  TRACK 334 AUDIO
    TITLE "LR_black_phrase_E_09_334"
    INDEX 01 07:13:22
  TRACK 335 AUDIO
    TITLE "LR_black_phrase_E_09_335"
    INDEX 01 07:15:51
  TRACK 336 AUDIO
    TITLE "LR_black_phrase_E_09_336"
    INDEX 01 07:16:31
  TRACK 337 AUDIO
    TITLE "LR_black_phrase_E_09_337"
    INDEX 01 07:18:57
  TRACK 338 AUDIO
    TITLE "LR_black_phrase_E_09_338"
    INDEX 01 07:19:56
  TRACK 339 AUDIO
    TITLE "LR_black_phrase_E_09_339"
    INDEX 01 07:20:54
  TRACK 340 AUDIO
    TITLE "LR_black_phrase_E_09_340"
    INDEX 01 07:20:73
  TRACK 341 AUDIO
    TITLE "LR_black_phrase_E_09_341"
    INDEX 01 07:23:11
  TRACK 342 AUDIO
    TITLE "LR_black_phrase_E_09_342"
    INDEX 01 07:23:56
  TRACK 343 AUDIO
    TITLE "LR_black_phrase_E_09_343"
    INDEX 01 07:25:69
  TRACK 344 AUDIO
    TITLE "LR_black_phrase_E_09_344"
    INDEX 01 07:26:62
  TRACK 345 AUDIO
    TITLE "LR_black_phrase_E_09_345"
    INDEX 01 07:27:72
  TRACK 346 AUDIO
    TITLE "LR_black_phrase_E_09_346"
    INDEX 01 07:28:16
  TRACK 347 AUDIO
    TITLE "LR_black_phrase_E_09_347"
    INDEX 01 07:30:13
  TRACK 348 AUDIO
    TITLE "LR_black_phrase_E_09_348"
    INDEX 01 07:30:62
  TRACK 349 AUDIO
    TITLE "LR_black_phrase_E_09_349"
    INDEX 01 07:32:55
  TRACK 350 AUDIO
    TITLE "LR_black_phrase_E_09_350"
    INDEX 01 07:33:53
  TRACK 351 AUDIO
    TITLE "LR_black_phrase_E_09_351"
    INDEX 01 07:35:06
  TRACK 352 AUDIO
    TITLE "LR_black_phrase_E_09_352"
    INDEX 01 07:35:28
  TRACK 353 AUDIO
    TITLE "LR_black_phrase_E_09_353"
    INDEX 01 07:37:64
  TRACK 354 AUDIO
    TITLE "LR_black_phrase_E_09_354"
    INDEX 01 07:38:36
  TRACK 355 AUDIO
    TITLE "LR_black_phrase_E_09_355"
    INDEX 01 07:40:74
  TRACK 356 AUDIO
    TITLE "LR_black_phrase_E_09_356"
    INDEX 01 07:41:72
  TRACK 357 AUDIO
    TITLE "LR_black_phrase_E_09_357"
    INDEX 01 07:43:12
  TRACK 358 AUDIO
    TITLE "LR_black_phrase_E_09_358"
    INDEX 01 07:43:29
  TRACK 359 AUDIO
    TITLE "LR_black_phrase_E_09_359"
    INDEX 01 07:45:56
  TRACK 360 AUDIO
    TITLE "LR_black_phrase_E_09_360"
    INDEX 01 07:46:26
  TRACK 361 AUDIO
    TITLE "LR_black_phrase_E_09_361"
    INDEX 01 07:48:50
  TRACK 362 AUDIO
    TITLE "LR_black_phrase_E_09_362"
    INDEX 01 07:49:50
  TRACK 363 AUDIO
    TITLE "LR_black_phrase_E_09_363"
    INDEX 01 07:50:67
  TRACK 364 AUDIO
    TITLE "LR_black_phrase_E_09_364"
    INDEX 01 07:51:19
  TRACK 365 AUDIO
    TITLE "LR_black_phrase_E_09_365"
    INDEX 01 07:53:63
  TRACK 366 AUDIO
    TITLE "LR_black_phrase_E_09_366"
    INDEX 01 07:54:43
  TRACK 367 AUDIO
    TITLE "LR_black_phrase_E_09_367"
    INDEX 01 07:57:10
  TRACK 368 AUDIO
    TITLE "LR_black_phrase_E_09_368"
    INDEX 01 07:58:15
  TRACK 369 AUDIO
    TITLE "LR_black_phrase_E_09_369"
    INDEX 01 07:59:36
  TRACK 370 AUDIO
    TITLE "LR_black_phrase_E_09_370"
    INDEX 01 07:59:68
  TRACK 371 AUDIO
    TITLE "LR_black_phrase_E_09_371"
    INDEX 01 08:02:33
  TRACK 372 AUDIO
    TITLE "LR_black_phrase_E_09_372"
    INDEX 01 08:03:13
  TRACK 373 AUDIO
    TITLE "LR_black_phrase_E_09_373"
    INDEX 01 08:05:53
  TRACK 374 AUDIO
    TITLE "LR_black_phrase_E_09_374"
    INDEX 01 08:06:58
  TRACK 375 AUDIO
    TITLE "LR_black_phrase_E_09_375"
    INDEX 01 08:07:69
  TRACK 376 AUDIO
    TITLE "LR_black_phrase_E_09_376"
    INDEX 01 08:08:24
  TRACK 377 AUDIO
    TITLE "LR_black_phrase_E_09_377"
    INDEX 01 08:11:04
  TRACK 378 AUDIO
    TITLE "LR_black_phrase_E_09_378"
    INDEX 01 08:11:59
  TRACK 379 AUDIO
    TITLE "LR_black_phrase_E_09_379"
    INDEX 01 08:14:40
  TRACK 380 AUDIO
    TITLE "LR_black_phrase_E_09_380"
    INDEX 01 08:15:47
  TRACK 381 AUDIO
    TITLE "LR_black_phrase_E_09_381"
    INDEX 01 08:16:54
  TRACK 382 AUDIO
    TITLE "LR_black_phrase_E_09_382"
    INDEX 01 08:17:11
  TRACK 383 AUDIO
    TITLE "LR_black_phrase_E_09_383"
    INDEX 01 08:19:12
  TRACK 384 AUDIO
    TITLE "LR_black_phrase_E_09_384"
    INDEX 01 08:19:70
  TRACK 385 AUDIO
    TITLE "LR_black_phrase_E_09_385"
    INDEX 01 08:21:73
  TRACK 386 AUDIO
    TITLE "LR_black_phrase_E_09_386"
    INDEX 01 08:23:04
  TRACK 387 AUDIO
    TITLE "LR_black_phrase_E_09_387"
    INDEX 01 08:24:36
  TRACK 388 AUDIO
    TITLE "LR_black_phrase_E_09_388"
    INDEX 01 08:24:68
  TRACK 389 AUDIO
    TITLE "LR_black_phrase_E_09_389"
    INDEX 01 08:26:74
  TRACK 390 AUDIO
    TITLE "LR_black_phrase_E_09_390"
    INDEX 01 08:27:52
  TRACK 391 AUDIO
    TITLE "LR_black_phrase_E_09_391"
    INDEX 01 08:29:59
  TRACK 392 AUDIO
    TITLE "LR_black_phrase_E_09_392"
    INDEX 01 08:30:62
  TRACK 393 AUDIO
    TITLE "LR_black_phrase_E_09_393"
    INDEX 01 08:32:24
  TRACK 394 AUDIO
    TITLE "LR_black_phrase_E_09_394"
    INDEX 01 08:32:55
  TRACK 395 AUDIO
    TITLE "LR_black_phrase_E_09_395"
    INDEX 01 08:35:03
  TRACK 396 AUDIO
    TITLE "LR_black_phrase_E_09_396"
    INDEX 01 08:35:58
  TRACK 397 AUDIO
    TITLE "LR_black_phrase_E_09_397"
    INDEX 01 08:38:07
  TRACK 398 AUDIO
    TITLE "LR_black_phrase_E_09_398"
    INDEX 01 08:39:10
  TRACK 399 AUDIO
    TITLE "LR_black_phrase_E_09_399"
    INDEX 01 08:40:25
  TRACK 400 AUDIO
    TITLE "LR_black_phrase_E_09_400"
    INDEX 01 08:40:55
  TRACK 401 AUDIO
    TITLE "LR_black_phrase_E_09_401"
    INDEX 01 08:42:60
  TRACK 402 AUDIO
    TITLE "LR_black_phrase_E_09_402"
    INDEX 01 08:43:39
  TRACK 403 AUDIO
    TITLE "LR_black_phrase_E_09_403"
    INDEX 01 08:45:44
  TRACK 404 AUDIO
    TITLE "LR_black_phrase_E_09_404"
    INDEX 01 08:46:50
  TRACK 405 AUDIO
    TITLE "LR_black_phrase_E_09_405"
    INDEX 01 08:47:65
  TRACK 406 AUDIO
    TITLE "LR_black_phrase_E_09_406"
    INDEX 01 08:48:19
  TRACK 407 AUDIO
    TITLE "LR_black_phrase_E_09_407"
    INDEX 01 08:50:28
  TRACK 408 AUDIO
    TITLE "LR_black_phrase_E_09_408"
    INDEX 01 08:51:08
  TRACK 409 AUDIO
    TITLE "LR_black_phrase_E_09_409"
    INDEX 01 08:53:14
  TRACK 410 AUDIO
    TITLE "LR_black_phrase_E_09_410"
    INDEX 01 08:54:20
  TRACK 411 AUDIO
    TITLE "LR_black_phrase_E_09_411"
    INDEX 01 08:55:27
  TRACK 412 AUDIO
    TITLE "LR_black_phrase_E_09_412"
    INDEX 01 08:55:56
  TRACK 413 AUDIO
    TITLE "LR_black_phrase_E_09_413"
    INDEX 01 08:57:53
  TRACK 414 AUDIO
    TITLE "LR_black_phrase_E_09_414"
    INDEX 01 08:58:33
  TRACK 415 AUDIO
    TITLE "LR_black_phrase_E_09_415"
    INDEX 01 09:00:28
  TRACK 416 AUDIO
    TITLE "LR_black_phrase_E_09_416"
    INDEX 01 09:01:34
  TRACK 417 AUDIO
    TITLE "LR_black_phrase_E_09_417"
    INDEX 01 09:02:39
  TRACK 418 AUDIO
    TITLE "LR_black_phrase_E_09_418"
    INDEX 01 09:02:70
  TRACK 419 AUDIO
    TITLE "LR_black_phrase_E_09_419"
    INDEX 01 09:04:51
  TRACK 420 AUDIO
    TITLE "LR_black_phrase_E_09_420"
    INDEX 01 09:05:33
  TRACK 421 AUDIO
    TITLE "LR_black_phrase_E_09_421"
    INDEX 01 09:07:15
  TRACK 422 AUDIO
    TITLE "LR_black_phrase_E_09_422"
    INDEX 01 09:08:14
  TRACK 423 AUDIO
    TITLE "LR_black_phrase_E_09_423"
    INDEX 01 09:09:55
  TRACK 424 AUDIO
    TITLE "LR_black_phrase_E_09_424"
    INDEX 01 09:10:07
  TRACK 425 AUDIO
    TITLE "LR_black_phrase_E_09_425"
    INDEX 01 09:12:20
  TRACK 426 AUDIO
    TITLE "LR_black_phrase_E_09_426"
    INDEX 01 09:12:65
  TRACK 427 AUDIO
    TITLE "LR_black_phrase_E_09_427"
    INDEX 01 09:15:04
  TRACK 428 AUDIO
    TITLE "LR_black_phrase_E_09_428"
    INDEX 01 09:16:00
  TRACK 429 AUDIO
    TITLE "LR_black_phrase_E_09_429"
    INDEX 01 09:17:27
  TRACK 430 AUDIO
    TITLE "LR_black_phrase_E_09_430"
    INDEX 01 09:17:44
  TRACK 431 AUDIO
    TITLE "LR_black_phrase_E_09_431"
    INDEX 01 09:19:49
  TRACK 432 AUDIO
    TITLE "LR_black_phrase_E_09_432"
    INDEX 01 09:20:19
  TRACK 433 AUDIO
    TITLE "LR_black_phrase_E_09_433"
    INDEX 01 09:22:24
  TRACK 434 AUDIO
    TITLE "LR_black_phrase_E_09_434"
    INDEX 01 09:23:19
  TRACK 435 AUDIO
    TITLE "LR_black_phrase_E_09_435"
    INDEX 01 09:24:17
  TRACK 436 AUDIO
    TITLE "LR_black_phrase_E_09_436"
    INDEX 01 09:24:38
  TRACK 437 AUDIO
    TITLE "LR_black_phrase_E_09_437"
    INDEX 01 09:26:30
  TRACK 438 AUDIO
    TITLE "LR_black_phrase_E_09_438"
    INDEX 01 09:27:00
  TRACK 439 AUDIO
    TITLE "LR_black_phrase_E_09_439"
    INDEX 01 09:28:66
  TRACK 440 AUDIO
    TITLE "LR_black_phrase_E_09_440"
    INDEX 01 09:29:61
  TRACK 441 AUDIO
    TITLE "LR_black_phrase_E_09_441"
    INDEX 01 09:31:11
  TRACK 442 AUDIO
    TITLE "LR_black_phrase_E_09_442"
    INDEX 01 09:31:31
  TRACK 443 AUDIO
    TITLE "LR_black_phrase_E_09_443"
    INDEX 01 09:33:73
  TRACK 444 AUDIO
    TITLE "LR_black_phrase_E_09_444"
    INDEX 01 09:34:45
  TRACK 445 AUDIO
    TITLE "LR_black_phrase_E_09_445"
    INDEX 01 09:37:14
  TRACK 446 AUDIO
    TITLE "LR_black_phrase_E_09_446"
    INDEX 01 09:38:09
  TRACK 447 AUDIO
    TITLE "LR_black_phrase_E_09_447"
    INDEX 01 09:39:07
  TRACK 448 AUDIO
    TITLE "LR_black_phrase_E_09_448"
    INDEX 01 09:39:32
  TRACK 449 AUDIO
    TITLE "LR_black_phrase_E_09_449"
    INDEX 01 09:42:01
  TRACK 450 AUDIO
    TITLE "LR_black_phrase_E_09_450"
    INDEX 01 09:42:52
  TRACK 451 AUDIO
    TITLE "LR_black_phrase_E_09_451"
    INDEX 01 09:45:21
  TRACK 452 AUDIO
    TITLE "LR_black_phrase_E_09_452"
    INDEX 01 09:46:19
  TRACK 453 AUDIO
    TITLE "LR_black_phrase_E_09_453"
    INDEX 01 09:47:43
  TRACK 454 AUDIO
    TITLE "LR_black_phrase_E_09_454"
    INDEX 01 09:47:65
  TRACK 455 AUDIO
    TITLE "LR_black_phrase_E_09_455"
    INDEX 01 09:51:08
  TRACK 456 AUDIO
    TITLE "LR_black_phrase_E_09_456"
    INDEX 01 09:51:53
  TRACK 457 AUDIO
    TITLE "LR_black_phrase_E_09_457"
    INDEX 01 09:54:69
  TRACK 458 AUDIO
    TITLE "LR_black_phrase_E_09_458"
    INDEX 01 09:55:64
  TRACK 459 AUDIO
    TITLE "LR_black_phrase_E_09_459"
    INDEX 01 09:56:64
  TRACK 460 AUDIO
    TITLE "LR_black_phrase_E_09_460"
    INDEX 01 09:57:10
  TRACK 461 AUDIO
    TITLE "LR_black_phrase_E_09_461"
    INDEX 01 09:58:73
  TRACK 462 AUDIO
    TITLE "LR_black_phrase_E_09_462"
    INDEX 01 09:59:45
  TRACK 463 AUDIO
    TITLE "LR_black_phrase_E_09_463"
    INDEX 01 10:01:34
  TRACK 464 AUDIO
    TITLE "LR_black_phrase_E_09_464"
    INDEX 01 10:02:29
  TRACK 465 AUDIO
    TITLE "LR_black_phrase_E_09_465"
    INDEX 01 10:03:48
  TRACK 466 AUDIO
    TITLE "LR_black_phrase_E_09_466"
    INDEX 01 10:04:07
  TRACK 467 AUDIO
    TITLE "LR_black_phrase_E_09_467"
    INDEX 01 10:06:07
  TRACK 468 AUDIO
    TITLE "LR_black_phrase_E_09_468"
    INDEX 01 10:06:60
  TRACK 469 AUDIO
    TITLE "LR_black_phrase_E_09_469"
    INDEX 01 10:08:63
  TRACK 470 AUDIO
    TITLE "LR_black_phrase_E_09_470"
    INDEX 01 10:09:57
  TRACK 471 AUDIO
    TITLE "LR_black_phrase_E_09_471"
    INDEX 01 10:10:58
  TRACK 472 AUDIO
    TITLE "LR_black_phrase_E_09_472"
    INDEX 01 10:11:09
  TRACK 473 AUDIO
    TITLE "LR_black_phrase_E_09_473"
    INDEX 01 10:13:68
  TRACK 474 AUDIO
    TITLE "LR_black_phrase_E_09_474"
    INDEX 01 10:14:36
  TRACK 475 AUDIO
    TITLE "LR_black_phrase_E_09_475"
    INDEX 01 10:17:23
  TRACK 476 AUDIO
    TITLE "LR_black_phrase_E_09_476"
    INDEX 01 10:18:19
  TRACK 477 AUDIO
    TITLE "LR_black_phrase_E_09_477"
    INDEX 01 10:19:39
  TRACK 478 AUDIO
    TITLE "LR_black_phrase_E_09_478"
    INDEX 01 10:19:63
  TRACK 479 AUDIO
    TITLE "LR_black_phrase_E_09_479"
    INDEX 01 10:21:52
  TRACK 480 AUDIO
    TITLE "LR_black_phrase_E_09_480"
    INDEX 01 10:22:22
  TRACK 481 AUDIO
    TITLE "LR_black_phrase_E_09_481"
    INDEX 01 10:24:15
  TRACK 482 AUDIO
    TITLE "LR_black_phrase_E_09_482"
    INDEX 01 10:25:15
  TRACK 483 AUDIO
    TITLE "LR_black_phrase_E_09_483"
    INDEX 01 10:26:28
  TRACK 484 AUDIO
    TITLE "LR_black_phrase_E_09_484"
    INDEX 01 10:26:57
  TRACK 485 AUDIO
    TITLE "LR_black_phrase_E_09_485"
    INDEX 01 10:29:38
  TRACK 486 AUDIO
    TITLE "LR_black_phrase_E_09_486"
    INDEX 01 10:30:18
  TRACK 487 AUDIO
    TITLE "LR_black_phrase_E_09_487"
    INDEX 01 10:32:73
  TRACK 488 AUDIO
    TITLE "LR_black_phrase_E_09_488"
    INDEX 01 10:34:02
  TRACK 489 AUDIO
    TITLE "LR_black_phrase_E_09_489"
    INDEX 01 10:35:25
  TRACK 490 AUDIO
    TITLE "LR_black_phrase_E_09_490"
    INDEX 01 10:35:56
  TRACK 491 AUDIO
    TITLE "LR_black_phrase_E_09_491"
    INDEX 01 10:38:29
  TRACK 492 AUDIO
    TITLE "LR_black_phrase_E_09_492"
    INDEX 01 10:39:07
  TRACK 493 AUDIO
    TITLE "LR_black_phrase_E_09_493"
    INDEX 01 10:41:57
  TRACK 494 AUDIO
    TITLE "LR_black_phrase_E_09_494"
    INDEX 01 10:42:60
  TRACK 495 AUDIO
    TITLE "LR_black_phrase_E_09_495"
    INDEX 01 10:43:71
  TRACK 496 AUDIO
    TITLE "LR_black_phrase_E_09_496"
    INDEX 01 10:44:24
  TRACK 497 AUDIO
    TITLE "LR_black_phrase_E_09_497"
    INDEX 01 10:46:38
  TRACK 498 AUDIO
    TITLE "LR_black_phrase_E_09_498"
    INDEX 01 10:47:18
  TRACK 499 AUDIO
    TITLE "LR_black_phrase_E_09_499"
    INDEX 01 10:49:31
  TRACK 500 AUDIO
    TITLE "LR_black_phrase_E_09_500"
    INDEX 01 10:50:34
  TRACK 501 AUDIO
    TITLE "LR_black_phrase_E_09_501"
    INDEX 01 10:51:57
  TRACK 502 AUDIO
    TITLE "LR_black_phrase_E_09_502"
    INDEX 01 10:52:00
  TRACK 503 AUDIO
    TITLE "LR_black_phrase_E_09_503"
    INDEX 01 10:53:62
  TRACK 504 AUDIO
    TITLE "LR_black_phrase_E_09_504"
    INDEX 01 10:54:34
  TRACK 505 AUDIO
    TITLE "LR_black_phrase_E_09_505"
    INDEX 01 10:56:23
  TRACK 506 AUDIO
    TITLE "LR_black_phrase_E_09_506"
    INDEX 01 10:57:24
  TRACK 507 AUDIO
    TITLE "LR_black_phrase_E_09_507"
    INDEX 01 10:58:47
  TRACK 508 AUDIO
    TITLE "LR_black_phrase_E_09_508"
    INDEX 01 10:59:00
  TRACK 509 AUDIO
    TITLE "LR_black_phrase_E_09_509"
    INDEX 01 11:01:40
  TRACK 510 AUDIO
    TITLE "LR_black_phrase_E_09_510"
    INDEX 01 11:02:20
  TRACK 511 AUDIO
    TITLE "LR_black_phrase_E_09_511"
    INDEX 01 11:04:60
  TRACK 512 AUDIO
    TITLE "LR_black_phrase_E_09_512"
    INDEX 01 11:05:65
  TRACK 513 AUDIO
    TITLE "LR_black_phrase_E_09_513"
    INDEX 01 11:07:23
  TRACK 514 AUDIO
    TITLE "LR_black_phrase_E_09_514"
    INDEX 01 11:07:52
  TRACK 515 AUDIO
    TITLE "LR_black_phrase_E_09_515"
    INDEX 01 11:09:71
  TRACK 516 AUDIO
    TITLE "LR_black_phrase_E_09_516"
    INDEX 01 11:10:55
  TRACK 517 AUDIO
    TITLE "LR_black_phrase_E_09_517"
    INDEX 01 11:12:71
  TRACK 518 AUDIO
    TITLE "LR_black_phrase_E_09_518"
    INDEX 01 11:14:03
  TRACK 519 AUDIO
    TITLE "LR_black_phrase_E_09_519"
    INDEX 01 11:15:24
  TRACK 520 AUDIO
    TITLE "LR_black_phrase_E_09_520"
    INDEX 01 11:15:54
  TRACK 521 AUDIO
    TITLE "LR_black_phrase_E_09_521"
    INDEX 01 11:18:11
  TRACK 522 AUDIO
    TITLE "LR_black_phrase_E_09_522"
    INDEX 01 11:18:68
  TRACK 523 AUDIO
    TITLE "LR_black_phrase_E_09_523"
    INDEX 01 11:21:25
  TRACK 524 AUDIO
    TITLE "LR_black_phrase_E_09_524"
    INDEX 01 11:22:30
  TRACK 525 AUDIO
    TITLE "LR_black_phrase_E_09_525"
    INDEX 01 11:23:47
  TRACK 526 AUDIO
    TITLE "LR_black_phrase_E_09_526"
    INDEX 01 11:24:02
  TRACK 527 AUDIO
    TITLE "LR_black_phrase_E_09_527"
    INDEX 01 11:26:46
  TRACK 528 AUDIO
    TITLE "LR_black_phrase_E_09_528"
    INDEX 01 11:27:28
  TRACK 529 AUDIO
    TITLE "LR_black_phrase_E_09_529"
    INDEX 01 11:29:73
  TRACK 530 AUDIO
    TITLE "LR_black_phrase_E_09_530"
    INDEX 01 11:31:02
  TRACK 531 AUDIO
    TITLE "LR_black_phrase_E_09_531"
    INDEX 01 11:32:31
  TRACK 532 AUDIO
    TITLE "LR_black_phrase_E_09_532"
    INDEX 01 11:32:60
  TRACK 533 AUDIO
    TITLE "LR_black_phrase_E_09_533"
    INDEX 01 11:34:51
  TRACK 534 AUDIO
    TITLE "LR_black_phrase_E_09_534"
    INDEX 01 11:35:33
  TRACK 535 AUDIO
    TITLE "LR_black_phrase_E_09_535"
    INDEX 01 11:37:24
  TRACK 536 AUDIO
    TITLE "LR_black_phrase_E_09_536"
    INDEX 01 11:38:29
  TRACK 537 AUDIO
    TITLE "LR_black_phrase_E_09_537"
    INDEX 01 11:39:50
  TRACK 538 AUDIO
    TITLE "LR_black_phrase_E_09_538"
    INDEX 01 11:40:05
  TRACK 539 AUDIO
    TITLE "LR_black_phrase_E_09_539"
    INDEX 01 11:42:43
  TRACK 540 AUDIO
    TITLE "LR_black_phrase_E_09_540"
    INDEX 01 11:43:25
  TRACK 541 AUDIO
    TITLE "LR_black_phrase_E_09_541"
    INDEX 01 11:45:63
  TRACK 542 AUDIO
    TITLE "LR_black_phrase_E_09_542"
    INDEX 01 11:46:64
  TRACK 543 AUDIO
    TITLE "LR_black_phrase_E_09_543"
    INDEX 01 11:48:06
  TRACK 544 AUDIO
    TITLE "LR_black_phrase_E_09_544"
    INDEX 01 11:48:24
  TRACK 545 AUDIO
    TITLE "LR_black_phrase_E_09_545"
    INDEX 01 11:50:34
  TRACK 546 AUDIO
    TITLE "LR_black_phrase_E_09_546"
    INDEX 01 11:51:04
  TRACK 547 AUDIO
    TITLE "LR_black_phrase_E_09_547"
    INDEX 01 11:53:17
  TRACK 548 AUDIO
    TITLE "LR_black_phrase_E_09_548"
    INDEX 01 11:54:15
  TRACK 549 AUDIO
    TITLE "LR_black_phrase_E_09_549"
    INDEX 01 11:55:43
  TRACK 550 AUDIO
    TITLE "LR_black_phrase_E_09_550"
    INDEX 01 11:55:61
  TRACK 551 AUDIO
    TITLE "LR_black_phrase_E_09_551"
    INDEX 01 11:58:03
  TRACK 552 AUDIO
    TITLE "LR_black_phrase_E_09_552"
    INDEX 01 11:58:46
  TRACK 553 AUDIO
    TITLE "LR_black_phrase_E_09_553"
    INDEX 01 12:00:60
  TRACK 554 AUDIO
    TITLE "LR_black_phrase_E_09_554"
    INDEX 01 12:01:54
  TRACK 555 AUDIO
    TITLE "LR_black_phrase_E_09_555"
    INDEX 01 12:02:71
  TRACK 556 AUDIO
    TITLE "LR_black_phrase_E_09_556"
    INDEX 01 12:03:19
  TRACK 557 AUDIO
    TITLE "LR_black_phrase_E_09_557"
    INDEX 01 12:05:40
  TRACK 558 AUDIO
    TITLE "LR_black_phrase_E_09_558"
    INDEX 01 12:06:12
  TRACK 559 AUDIO
    TITLE "LR_black_phrase_E_09_559"
    INDEX 01 12:08:34
  TRACK 560 AUDIO
    TITLE "LR_black_phrase_E_09_560"
    INDEX 01 12:09:30
  TRACK 561 AUDIO
    TITLE "LR_black_phrase_E_09_561"
    INDEX 01 12:10:33
  TRACK 562 AUDIO
    TITLE "LR_black_phrase_E_09_562"
    INDEX 01 12:10:53
  TRACK 563 AUDIO
    TITLE "LR_black_phrase_E_09_563"
    INDEX 01 12:12:36
  TRACK 564 AUDIO
    TITLE "LR_black_phrase_E_09_564"
    INDEX 01 12:13:04
  TRACK 565 AUDIO
    TITLE "LR_black_phrase_E_09_565"
    INDEX 01 12:14:62
  TRACK 566 AUDIO
    TITLE "LR_black_phrase_E_09_566"
    INDEX 01 12:15:58
  TRACK 567 AUDIO
    TITLE "LR_black_phrase_E_09_567"
    INDEX 01 12:17:21
  TRACK 568 AUDIO
    TITLE "LR_black_phrase_E_09_568"
    INDEX 01 12:17:43
  TRACK 569 AUDIO
    TITLE "LR_black_phrase_E_09_569"
    INDEX 01 12:21:21
  TRACK 570 AUDIO
    TITLE "LR_black_phrase_E_09_570"
    INDEX 01 12:21:66
  TRACK 571 AUDIO
    TITLE "LR_black_phrase_E_09_571"
    INDEX 01 12:25:46
  TRACK 572 AUDIO
    TITLE "LR_black_phrase_E_09_572"
    INDEX 01 12:26:42
  TRACK 573 AUDIO
    TITLE "LR_black_phrase_E_09_573"
    INDEX 01 12:27:49
  TRACK 574 AUDIO
    TITLE "LR_black_phrase_E_09_574"
    INDEX 01 12:28:04
  TRACK 575 AUDIO
    TITLE "LR_black_phrase_E_09_575"
    INDEX 01 12:30:07
  TRACK 576 AUDIO
    TITLE "LR_black_phrase_E_09_576"
    INDEX 01 12:30:54
  TRACK 577 AUDIO
    TITLE "LR_black_phrase_E_09_577"
    INDEX 01 12:32:56
  TRACK 578 AUDIO
    TITLE "LR_black_phrase_E_09_578"
    INDEX 01 12:33:66
  TRACK 579 AUDIO
    TITLE "LR_black_phrase_E_09_579"
    INDEX 01 12:35:02
  TRACK 580 AUDIO
    TITLE "LR_black_phrase_E_09_580"
    INDEX 01 12:35:21
  TRACK 581 AUDIO
    TITLE "LR_black_phrase_E_09_581"
    INDEX 01 12:37:42
  TRACK 582 AUDIO
    TITLE "LR_black_phrase_E_09_582"
    INDEX 01 12:38:12
  TRACK 583 AUDIO
    TITLE "LR_black_phrase_E_09_583"
    INDEX 01 12:40:32
  TRACK 584 AUDIO
    TITLE "LR_black_phrase_E_09_584"
    INDEX 01 12:41:28
  TRACK 585 AUDIO
    TITLE "LR_black_phrase_E_09_585"
    INDEX 01 12:42:33
  TRACK 586 AUDIO
    TITLE "LR_black_phrase_E_09_586"
    INDEX 01 12:42:59
  TRACK 587 AUDIO
    TITLE "LR_black_phrase_E_09_587"
    INDEX 01 12:45:02
  TRACK 588 AUDIO
    TITLE "LR_black_phrase_E_09_588"
    INDEX 01 12:45:57
  TRACK 589 AUDIO
    TITLE "LR_black_phrase_E_09_589"
    INDEX 01 12:48:01
  TRACK 590 AUDIO
    TITLE "LR_black_phrase_E_09_590"
    INDEX 01 12:48:73
  TRACK 591 AUDIO
    TITLE "LR_black_phrase_E_09_591"
    INDEX 01 12:50:13
  TRACK 592 AUDIO
    TITLE "LR_black_phrase_E_09_592"
    INDEX 01 12:50:35
  TRACK 593 AUDIO
    TITLE "LR_black_phrase_E_09_593"
    INDEX 01 12:52:02
  TRACK 594 AUDIO
    TITLE "LR_black_phrase_E_09_594"
    INDEX 01 12:52:53
  TRACK 595 AUDIO
    TITLE "LR_black_phrase_E_09_595"
    INDEX 01 12:54:19
  TRACK 596 AUDIO
    TITLE "LR_black_phrase_E_09_596"
    INDEX 01 12:55:24
  TRACK 597 AUDIO
    TITLE "LR_black_phrase_E_09_597"
    INDEX 01 12:56:47
  TRACK 598 AUDIO
    TITLE "LR_black_phrase_E_09_598"
    INDEX 01 12:56:73
  TRACK 599 AUDIO
    TITLE "LR_black_phrase_E_09_599"
    INDEX 01 12:58:62
  TRACK 600 AUDIO
    TITLE "LR_black_phrase_E_09_600"
    INDEX 01 12:59:32
  TRACK 601 AUDIO
    TITLE "LR_black_phrase_E_09_601"
    INDEX 01 13:01:25
